<svg width="278" height="278" viewBox="0 0 278 278" fill="none" xmlns="http://www.w3.org/2000/svg">
<path d="M139 62.6336C129.214 62.6336 121.251 70.5957 121.251 80.3822C121.251 90.1686 129.214 98.1307 139 98.1307C148.786 98.1307 156.749 90.1686 156.749 80.3822C156.749 70.5957 148.786 62.6336 139 62.6336ZM139.001 89.0854C134.202 89.0854 130.297 85.1815 130.297 80.3822C130.297 75.5829 134.201 71.6789 139.001 71.6789C143.799 71.6789 147.704 75.5829 147.704 80.3822C147.704 85.1815 143.8 89.0854 139.001 89.0854Z" fill="#059033"/>
<path d="M160.161 149.921H117.839V158.967H160.161V149.921Z" fill="black"/>
<path d="M183.968 149.921H168.097V158.967H183.968V149.921Z" fill="black"/>
<path d="M109.902 149.921H94.0314V158.967H109.902V149.921Z" fill="#059033"/>
<path d="M236.103 268.955V137.808H251.973V107.601H249.291L187.13 46.9554L180.813 53.4298L236.339 107.601H222.83L139 26.4762L55.1705 107.602H41.662L139 12.6371L172.861 45.6718L179.178 39.1969L139 0L28.709 107.602H26.0267V137.809H41.8971V157.093H50.9424V137.809H213.064V128.763H35.072V116.648H58.8307L139 39.0639L209.822 107.601H115.194V116.647H242.928V128.762H227.057V268.954H214.941V168.44H63.0588V268.955H50.943V165.029H41.8971V268.954H22.6141V278H255.386V268.955H236.103ZM205.896 268.955H72.1046V254.194H205.896L205.896 268.955ZM205.896 245.148H72.1046V230.388H205.896L205.896 245.148ZM205.896 221.342H72.1046V203.936H205.896L205.896 221.342ZM205.896 194.891H72.1046V177.485H205.896L205.896 194.891Z" fill="black"/>
<path d="M101.967 107.6H80.8068V116.645H101.967V107.6Z" fill="black"/>
<rect x="90" y="194" width="98" height="61" fill="#F7F7F7"/>
<circle cx="139" cy="117" r="106" fill="#059033" fill-opacity="0.1"/>
</svg>
