<svg width="1799" height="329" viewBox="0 0 1799 329" fill="none" xmlns="http://www.w3.org/2000/svg">
<path d="M481.405 110.576C493.934 110.576 505.142 113.022 515.028 117.916C524.915 122.811 532.696 130.298 538.373 140.382C544.051 150.464 546.889 163.434 546.889 179.292V269.153H510.183V183.991C510.183 170.09 506.903 159.714 500.346 152.862C493.788 146.011 484.635 142.584 472.889 142.584C464.275 142.584 456.64 144.347 449.983 147.87C443.328 151.394 438.189 156.631 434.567 163.581C430.945 170.531 429.134 179.292 429.134 189.864V269.153H392.428V51.2542H429.134V154.624L421.206 141.704C426.687 131.718 434.665 124.034 445.139 118.651C455.612 113.267 467.701 110.576 481.405 110.576Z" fill="#332C2B"/>
<path d="M651.371 271.208C633.949 271.208 618.726 267.733 605.708 260.784C592.689 253.833 582.608 244.289 575.461 232.151C568.316 220.012 564.745 206.211 564.745 190.746C564.745 175.083 568.218 161.232 575.169 149.192C582.118 137.151 591.711 127.705 603.947 120.853C616.182 114.001 630.13 110.576 645.792 110.576C661.063 110.576 674.667 113.903 686.611 120.558C698.553 127.216 707.949 136.613 714.8 148.751C721.653 160.889 725.079 175.18 725.079 191.626C725.079 193.192 725.029 194.955 724.931 196.912C724.834 198.869 724.686 200.728 724.492 202.491H593.816V178.117H705.11L690.722 185.752C690.916 176.746 689.058 168.818 685.141 161.966C681.226 155.113 675.892 149.729 669.138 145.815C662.384 141.898 654.602 139.94 645.792 139.94C636.787 139.94 628.907 141.898 622.153 145.815C615.399 149.729 610.113 155.162 606.296 162.112C602.479 169.063 600.57 177.237 600.57 186.633V192.506C600.57 201.904 602.723 210.224 607.03 217.467C611.337 224.711 617.405 230.292 625.236 234.207C633.067 238.123 642.072 240.08 652.252 240.08C661.063 240.08 668.99 238.709 676.039 235.969C683.086 233.228 689.35 228.92 694.833 223.048L714.507 245.659C707.459 253.882 698.601 260.196 687.931 264.601C677.262 269.006 665.076 271.208 651.371 271.208Z" fill="#332C2B"/>
<path d="M833.084 110.576C845.613 110.576 856.821 113.022 866.708 117.915C876.594 122.81 884.375 130.298 890.052 140.382C895.731 150.463 898.569 163.434 898.569 179.292V269.153H861.863V183.991C861.863 170.09 858.583 159.714 852.025 152.862C845.467 146.011 836.315 142.584 824.568 142.584C815.954 142.584 808.319 144.346 801.663 147.87C795.007 151.394 789.868 156.631 786.246 163.58C782.624 170.531 780.814 179.292 780.814 189.863V269.153H744.108V112.336L779.052 154.624L772.885 141.704C778.367 131.718 786.344 124.034 796.818 118.651C807.292 113.267 819.38 110.576 833.084 110.576Z" fill="#332C2B"/>
<path d="M1000.41 328.179C985.921 328.179 971.777 326.271 957.974 322.452C944.174 318.634 932.868 313.105 924.058 305.861L940.502 278.257C947.354 283.934 956.017 288.485 966.491 291.912C976.965 295.337 987.585 297.05 998.352 297.05C1015.58 297.05 1028.21 293.087 1036.23 285.157C1044.26 277.229 1048.27 265.335 1048.27 249.478V221.578L1051.21 186.047L1050.04 150.513L1084.98 112.336V245.367C1084.98 273.753 1077.74 294.653 1063.25 308.063C1048.76 321.474 1027.82 328.179 1000.41 328.179ZM995.709 262.106C980.831 262.106 967.371 258.923 955.332 252.56C943.292 246.199 933.798 237.339 926.847 225.985C919.897 214.629 916.423 201.316 916.423 186.047C916.423 170.972 919.897 157.757 926.847 146.402C933.798 135.047 943.292 126.236 955.332 119.972C967.371 113.708 980.831 110.576 995.709 110.576C1009.02 110.576 1020.96 113.217 1031.53 118.503C1042.11 123.789 1050.57 132.012 1056.94 143.171C1063.3 154.331 1066.48 168.622 1066.48 186.047C1066.48 203.47 1063.3 217.811 1056.94 229.067C1050.57 240.325 1042.11 248.645 1031.53 254.029C1020.96 259.412 1009.02 262.106 995.709 262.106ZM1001.29 230.976C1010.49 230.976 1018.71 229.067 1025.96 225.25C1033.2 221.432 1038.83 216.146 1042.84 209.392C1046.85 202.638 1048.86 194.856 1048.86 186.047C1048.86 177.237 1046.85 169.454 1042.84 162.7C1038.83 155.945 1033.2 150.758 1025.96 147.136C1018.71 143.514 1010.49 141.704 1001.29 141.704C992.087 141.704 983.817 143.514 976.475 147.136C969.134 150.758 963.457 155.945 959.442 162.7C955.43 169.454 953.424 177.237 953.424 186.047C953.424 194.856 955.43 202.638 959.442 209.392C963.457 216.146 969.134 221.432 976.475 225.25C983.817 229.067 992.087 230.976 1001.29 230.976Z" fill="#332C2B"/>
<path d="M1116.93 269.153V112.336L1151.88 155.505L1147.76 142.878C1152.46 132.306 1159.85 124.279 1169.93 118.798C1180.02 113.315 1192.59 110.576 1207.67 110.576V145.52C1206.1 145.129 1204.63 144.884 1203.26 144.786C1201.89 144.689 1200.52 144.639 1199.15 144.639C1185.25 144.639 1174.19 148.702 1165.97 156.827C1157.75 164.951 1153.64 177.041 1153.64 193.094V269.153H1116.93Z" fill="#332C2B"/>
<path d="M1291.6 271.208C1275.54 271.208 1261.25 267.733 1248.72 260.784C1236.19 253.833 1226.31 244.289 1219.06 232.151C1211.82 220.012 1208.2 206.211 1208.2 190.746C1208.2 175.083 1211.82 161.232 1219.06 149.192C1226.31 137.151 1236.19 127.705 1248.72 120.853C1261.25 114.001 1275.54 110.576 1291.6 110.576C1307.84 110.576 1322.28 114.001 1334.91 120.853C1347.54 127.705 1357.42 137.103 1364.57 149.045C1371.71 160.987 1375.29 174.887 1375.29 190.746C1375.29 206.211 1371.71 220.012 1364.57 232.151C1357.42 244.289 1347.54 253.833 1334.91 260.784C1322.28 267.733 1307.84 271.208 1291.6 271.208ZM1291.6 239.786C1300.6 239.786 1308.63 237.829 1315.68 233.913C1322.72 229.997 1328.25 224.32 1332.27 216.881C1336.28 209.442 1338.29 200.728 1338.29 190.746C1338.29 180.564 1336.28 171.802 1332.27 164.462C1328.25 157.121 1322.72 151.492 1315.68 147.575C1308.63 143.661 1300.7 141.704 1291.89 141.704C1282.88 141.704 1274.91 143.661 1267.96 147.575C1261.01 151.492 1255.48 157.121 1251.37 164.462C1247.25 171.802 1245.2 180.564 1245.2 190.746C1245.2 200.728 1247.25 209.442 1251.37 216.881C1255.48 224.32 1261.01 229.997 1267.96 233.913C1274.91 237.829 1282.79 239.786 1291.6 239.786Z" fill="#332C2B"/>
<path d="M1424.56 269.153L1367.01 112.336H1401.66L1450.99 250.652H1434.55L1486.23 112.336H1517.06L1567.28 250.652H1551.13L1601.93 112.336H1634.52L1576.67 269.153H1541.44L1495.63 146.695H1506.49L1459.8 269.153H1424.56Z" fill="#332C2B"/>
<path d="M1732.55 110.576C1745.08 110.576 1756.28 113.022 1766.17 117.915C1776.06 122.81 1783.84 130.298 1789.51 140.382C1795.19 150.463 1798.03 163.434 1798.03 179.292V269.153H1761.33V183.991C1761.33 170.09 1758.04 159.714 1751.49 152.862C1744.93 146.011 1735.78 142.584 1724.03 142.584C1715.42 142.584 1707.78 144.346 1701.13 147.87C1694.47 151.394 1689.33 156.631 1685.71 163.58C1682.09 170.531 1680.28 179.292 1680.28 189.863V269.153H1643.57V112.336L1678.51 154.624L1672.35 141.704C1677.83 131.718 1685.81 124.034 1696.28 118.651C1706.75 113.267 1718.84 110.576 1732.55 110.576Z" fill="#332C2B"/>
<path fill-rule="evenodd" clip-rule="evenodd" d="M146.779 267.737C127.048 286.856 96.3838 301.354 74.3131 301.44L68.0769 301.462L71.0368 296.341C75.9831 287.779 93.0471 271.148 103.96 264.252L114.266 257.74L94.95 256.742C65.7006 255.232 40.2163 247.789 14.9911 233.412C7.82062 229.326 1.30321 225.332 0.507025 224.534C-1.14092 222.89 15.0892 217.509 30.8477 214.484C45.8509 211.601 79.7057 211.976 94.3623 215.184C101.059 216.64 106.728 217.666 106.961 217.423C107.203 217.154 102.184 212.962 95.8304 208.027C64.4867 183.689 35.4294 141.679 21.7963 100.988C17.705 88.7796 16.6203 83.5642 18.1693 83.5642C20.763 83.5642 47.8217 96.131 57.4078 101.789C84.1354 117.56 110.479 141.59 128.125 166.293C133.274 173.501 137.061 177.924 136.542 176.123C133.03 163.949 131.514 147.928 131.501 122.88C131.484 91.2393 133.585 76.5823 142.188 48.3423C147.2 31.8917 161.12 0.0164795 163.295 0.0164795C164.929 0.0164795 175.517 23.5855 180.348 37.9761C193.85 78.1984 197.711 127.853 190.336 166.401C188.968 173.549 187.849 180.095 187.849 180.947C187.849 181.81 192.006 176.419 197.089 168.99C220.081 135.382 254.983 106.525 292.086 90.444C311.477 82.0405 310.815 81.9734 308.169 92.0887C297.513 132.859 265.857 180.392 230.743 208.346C224.152 213.594 219.13 217.888 219.583 217.888C220.036 217.888 225.062 216.836 230.749 215.541C254.893 210.047 282.39 210.781 308.397 217.618C327.148 222.542 327.579 223.141 317.157 229.788C291.222 246.333 263.496 254.916 230.069 256.747L212.499 257.718L222.451 263.605C231.961 269.231 254.3 290.732 258.193 298.008C259.924 301.244 259.644 301.462 253.694 301.462C243.184 301.462 222.954 295.438 208.675 288.059C198.593 282.847 191.701 277.599 181.184 267.119L179.479 265.421V228.05H199.357L163.129 192.323L126.902 228.05H146.779V267.737Z" fill="#059033"/>
</svg>
