<svg width="49" height="50" viewBox="0 0 49 50" fill="none" xmlns="http://www.w3.org/2000/svg">
<path fill-rule="evenodd" clip-rule="evenodd" d="M23.3985 38.5339C20.5797 41.2652 16.1987 43.3363 13.0456 43.3486L12.1546 43.3518L12.5775 42.6202C13.2842 41.397 15.722 39.0211 17.2811 38.0361L18.7535 37.1057L15.9939 36.9631C11.8151 36.7474 8.17429 35.6841 4.57046 33.6303C3.54603 33.0466 2.61491 32.4761 2.50116 32.3621C2.26573 32.1271 4.58447 31.3585 6.83583 30.9263C8.97928 30.5144 13.816 30.568 15.9099 31.0264C16.8666 31.2343 17.6765 31.3809 17.7098 31.3461C17.7444 31.3077 17.0274 30.7089 16.1197 30.0039C11.6417 26.5271 7.49041 20.5256 5.54268 14.7125C4.95818 12.9685 4.80321 12.2235 5.02451 12.2235C5.39507 12.2235 9.26085 14.0187 10.6304 14.827C14.4489 17.08 18.2125 20.5129 20.7335 24.0419C21.4691 25.0716 22.0101 25.7034 21.936 25.4461C21.4343 23.707 21.2176 21.4183 21.2158 17.84C21.2134 13.3199 21.5136 11.2261 22.7426 7.19177C23.4586 4.84169 25.4474 0.288086 25.7581 0.288086C25.9915 0.288086 27.5042 3.65509 28.1944 5.71089C30.1234 11.4569 30.675 18.5505 29.6213 24.0573C29.4259 25.0785 29.266 26.0136 29.266 26.1353C29.266 26.2586 29.86 25.4884 30.5862 24.4271C33.871 19.626 38.8573 15.5036 44.1581 13.2063C46.9283 12.0058 46.8337 11.9962 46.4557 13.4413C44.9334 19.2655 40.4109 26.056 35.3942 30.0495C34.4525 30.7992 33.735 31.4125 33.7998 31.4125C33.8645 31.4125 34.5825 31.2622 35.395 31.0773C38.8444 30.2925 42.7728 30.3974 46.4883 31.374C49.1672 32.0775 49.2288 32.163 47.7399 33.1126C44.0345 35.4761 40.0735 36.7023 35.2979 36.9639L32.7877 37.1027L34.2095 37.9436C35.5682 38.7473 38.7596 41.8189 39.3159 42.8583C39.5632 43.3206 39.5232 43.3518 38.6731 43.3518C37.1716 43.3518 34.2814 42.4911 32.2413 41.4371C30.8011 40.6925 29.8163 39.9427 28.3138 38.4456L28.0703 38.2031V32.8643H30.9101L25.7344 27.7605L20.5588 32.8643H23.3985V38.5339Z" fill="#059033"/>
</svg>
