<svg width="216" height="40" viewBox="0 0 216 40" fill="none" xmlns="http://www.w3.org/2000/svg">
<path d="M57.7217 13.2671C59.2252 13.2671 60.5701 13.5607 61.7565 14.1479C62.9429 14.7353 63.8766 15.6338 64.5579 16.8439C65.2392 18.0537 65.5798 19.6101 65.5798 21.5131V32.2964H61.1751V22.0769C61.1751 20.4088 60.7814 19.1637 59.9945 18.3415C59.2077 17.5193 58.1093 17.1081 56.6997 17.1081C55.6661 17.1081 54.7499 17.3196 53.9511 17.7424C53.1524 18.1653 52.5357 18.7938 52.1011 19.6277C51.6665 20.4618 51.4492 21.5131 51.4492 22.7817V32.2964H47.0444V6.14853H51.4492V18.553L50.4978 17.0025C51.1556 15.8042 52.1128 14.8821 53.3697 14.2362C54.6266 13.59 56.0771 13.2671 57.7217 13.2671Z" fill="white"/>
<path d="M78.1176 32.543C76.0269 32.543 74.2002 32.126 72.638 31.2921C71.0758 30.458 69.866 29.3127 69.0084 27.8561C68.151 26.3995 67.7224 24.7433 67.7224 22.8875C67.7224 21.008 68.1392 19.3459 68.9733 17.901C69.8073 16.4562 70.9584 15.3227 72.4267 14.5004C73.8949 13.6781 75.5687 13.2671 77.4481 13.2671C79.2806 13.2671 80.9131 13.6663 82.3464 14.465C83.7794 15.2639 84.907 16.3916 85.7291 17.8481C86.5514 19.3048 86.9626 21.0196 86.9626 22.9931C86.9626 23.1811 86.9566 23.3926 86.9448 23.6274C86.9331 23.8624 86.9154 24.0854 86.892 24.2969H71.211V21.3721H84.5663L82.8397 22.2883C82.863 21.2076 82.64 20.2562 82.17 19.4339C81.7002 18.6116 81.0601 17.9655 80.2496 17.4958C79.4391 17.0258 78.5053 16.7909 77.4481 16.7909C76.3675 16.7909 75.4219 17.0258 74.6114 17.4958C73.801 17.9655 73.1666 18.6175 72.7085 19.4515C72.2505 20.2856 72.0214 21.2665 72.0214 22.394V23.0988C72.0214 24.2265 72.2799 25.2249 72.7966 26.0941C73.3135 26.9633 74.0417 27.633 74.9813 28.1028C75.9211 28.5728 77.0017 28.8076 78.2233 28.8076C79.2806 28.8076 80.2319 28.6431 81.0777 28.3143C81.9234 27.9854 82.6751 27.4684 83.333 26.7638L85.694 29.4771C84.8481 30.4639 83.7852 31.2216 82.5048 31.7501C81.2245 32.2787 79.7621 32.543 78.1176 32.543Z" fill="white"/>
<path d="M99.9232 13.2671C101.427 13.2671 102.772 13.5607 103.958 14.1479C105.144 14.7353 106.078 15.6338 106.759 16.8438C107.441 18.0536 107.781 19.6101 107.781 21.5131V32.2964H103.377V22.0769C103.377 20.4088 102.983 19.1637 102.196 18.3414C101.409 17.5193 100.311 17.1081 98.9012 17.1081C97.8676 17.1081 96.9513 17.3196 96.1526 17.7424C95.3539 18.1653 94.7372 18.7938 94.3026 19.6277C93.868 20.4618 93.6507 21.5131 93.6507 22.7816V32.2964H89.246V13.4784L93.4393 18.5529L92.6992 17.0024C93.3571 15.8042 94.3144 14.8821 95.5712 14.2362C96.8281 13.59 98.2787 13.2671 99.9232 13.2671Z" fill="white"/>
<path d="M120.002 39.3795C118.264 39.3795 116.566 39.1505 114.91 38.6923C113.254 38.2341 111.897 37.5706 110.84 36.7014L112.813 33.3889C113.636 34.0701 114.675 34.6162 115.932 35.0274C117.189 35.4385 118.463 35.6441 119.755 35.6441C121.823 35.6441 123.338 35.1684 124.301 34.2169C125.264 33.2655 125.746 31.8382 125.746 29.9353V26.5874L126.098 22.3236L125.957 18.0596L130.151 13.4784V29.442C130.151 32.8484 129.281 35.3564 127.543 36.9656C125.804 38.5749 123.291 39.3795 120.002 39.3795ZM119.438 31.4507C117.653 31.4507 116.038 31.0688 114.593 30.3052C113.148 29.5419 112.009 28.4787 111.175 27.1162C110.341 25.7535 109.924 24.1559 109.924 22.3236C109.924 20.5147 110.341 18.9288 111.175 17.5662C112.009 16.2037 113.148 15.1464 114.593 14.3947C116.038 13.643 117.653 13.2671 119.438 13.2671C121.036 13.2671 122.469 13.584 123.737 14.2184C125.006 14.8527 126.022 15.8394 126.785 17.1785C127.549 18.5177 127.931 20.2326 127.931 22.3236C127.931 24.4144 127.549 26.1353 126.785 27.4861C126.022 28.8371 125.006 29.8355 123.737 30.4815C122.469 31.1275 121.036 31.4507 119.438 31.4507ZM120.108 27.7151C121.212 27.7151 122.198 27.4861 123.068 27.0281C123.937 26.5699 124.612 25.9356 125.094 25.125C125.576 24.3146 125.816 23.3808 125.816 22.3236C125.816 21.2665 125.576 20.3325 125.094 19.522C124.612 18.7115 123.937 18.089 123.068 17.6543C122.198 17.2197 121.212 17.0024 120.108 17.0024C119.004 17.0024 118.011 17.2197 117.13 17.6543C116.249 18.089 115.568 18.7115 115.086 19.522C114.605 20.3325 114.364 21.2665 114.364 22.3236C114.364 23.3808 114.605 24.3146 115.086 25.125C115.568 25.9356 116.249 26.5699 117.13 27.0281C118.011 27.4861 119.004 27.7151 120.108 27.7151Z" fill="white"/>
<path d="M133.985 32.2964V13.4784L138.178 18.6586L137.685 17.1434C138.249 15.8747 139.135 14.9115 140.345 14.2537C141.555 13.5958 143.064 13.2671 144.873 13.2671V17.4605C144.685 17.4135 144.509 17.3841 144.345 17.3724C144.18 17.3607 144.016 17.3547 143.851 17.3547C142.183 17.3547 140.856 17.8422 139.869 18.8172C138.883 19.7922 138.389 21.2429 138.389 23.1693V32.2964H133.985Z" fill="white"/>
<path d="M154.945 32.543C153.018 32.543 151.303 32.126 149.8 31.2921C148.296 30.458 147.11 29.3127 146.241 27.8561C145.372 26.3995 144.937 24.7433 144.937 22.8875C144.937 21.008 145.372 19.3459 146.241 17.901C147.11 16.4562 148.296 15.3227 149.8 14.5004C151.303 13.6781 153.018 13.2671 154.945 13.2671C156.894 13.2671 158.627 13.6781 160.142 14.5004C161.657 15.3227 162.844 16.4504 163.701 17.8834C164.559 19.3165 164.988 20.9844 164.988 22.8875C164.988 24.7433 164.559 26.3995 163.701 27.8561C162.844 29.3127 161.657 30.458 160.142 31.2921C158.627 32.126 156.894 32.543 154.945 32.543ZM154.945 28.7723C156.025 28.7723 156.988 28.5375 157.834 28.0676C158.68 27.5977 159.343 26.9165 159.825 26.0237C160.307 25.131 160.548 24.0854 160.548 22.8875C160.548 21.6657 160.307 20.6143 159.825 19.7335C159.343 18.8525 158.68 18.177 157.834 17.7071C156.988 17.2373 156.037 17.0024 154.98 17.0024C153.899 17.0024 152.942 17.2373 152.108 17.7071C151.274 18.177 150.61 18.8525 150.117 19.7335C149.624 20.6143 149.377 21.6657 149.377 22.8875C149.377 24.0854 149.624 25.131 150.117 26.0237C150.61 26.9165 151.274 27.5977 152.108 28.0676C152.942 28.5375 153.887 28.7723 154.945 28.7723Z" fill="white"/>
<path d="M170.901 32.2964L163.994 13.4784H168.152L174.072 30.0763H172.099L178.301 13.4784H182.001L188.026 30.0763H186.088L192.185 13.4784H196.096L189.154 32.2964H184.925L179.428 17.6014H180.732L175.129 32.2964H170.901Z" fill="white"/>
<path d="M207.859 13.2671C209.362 13.2671 210.707 13.5607 211.893 14.1479C213.08 14.7353 214.014 15.6338 214.695 16.8438C215.376 18.0536 215.717 19.6101 215.717 21.5131V32.2964H211.312V22.0769C211.312 20.4088 210.918 19.1637 210.132 18.3414C209.345 17.5193 208.246 17.1081 206.837 17.1081C205.803 17.1081 204.887 17.3196 204.088 17.7424C203.289 18.1653 202.673 18.7938 202.238 19.6277C201.803 20.4618 201.586 21.5131 201.586 22.7816V32.2964H197.181V13.4784L201.375 18.5529L200.635 17.0024C201.293 15.8042 202.25 14.8821 203.507 14.2362C204.764 13.59 206.214 13.2671 207.859 13.2671Z" fill="white"/>
<path fill-rule="evenodd" clip-rule="evenodd" d="M17.5665 32.1265C15.1988 34.4207 11.5191 36.1605 8.87063 36.1709L8.12228 36.1735L8.47747 35.5589C9.07103 34.5315 11.1187 32.5357 12.4282 31.7083L13.665 30.9268L11.3471 30.807C7.83713 30.6258 4.77901 29.7327 1.75199 28.0075C0.891526 27.5172 0.109436 27.0379 0.0138948 26.9422C-0.183859 26.7448 1.76376 26.0991 3.65478 25.7361C5.45516 25.3901 9.51774 25.4351 11.2765 25.8201C12.0801 25.9949 12.7604 26.118 12.7883 26.0887C12.8174 26.0565 12.2152 25.5535 11.4527 24.9613C7.69146 22.0407 4.20458 16.9995 2.56861 12.1165C2.07765 10.6516 1.94749 10.0257 2.13337 10.0257C2.44462 10.0257 5.69166 11.5337 6.84198 12.2127C10.0493 14.1052 13.2105 16.9888 15.328 19.9532C15.9459 20.8182 16.4004 21.3489 16.3381 21.1328C15.9167 19.6719 15.7347 17.7494 15.7331 14.7436C15.7312 10.9467 15.9833 9.18789 17.0156 5.7991C17.617 3.82503 19.2875 0 19.5484 0C19.7445 0 21.0151 2.82829 21.5948 4.55515C23.215 9.38183 23.6784 15.3404 22.7933 19.9661C22.6292 20.8239 22.4949 21.6094 22.4949 21.7116C22.4949 21.8152 22.9938 21.1683 23.6038 20.2768C26.3628 16.2439 30.551 12.781 35.0034 10.8513C37.3303 9.84288 37.2508 9.83484 36.9333 11.0487C35.6547 15.9411 31.8559 21.645 27.6422 24.9996C26.8513 25.6293 26.2486 26.1445 26.3031 26.1445C26.3574 26.1445 26.9605 26.0183 27.6429 25.8629C30.5402 25.2037 33.8399 25.2918 36.9607 26.1122C39.2108 26.7031 39.2626 26.7749 38.0119 27.5726C34.8996 29.558 31.5726 30.588 27.5614 30.8077L25.4529 30.9242L26.6472 31.6306C27.7884 32.3057 30.469 34.8859 30.9362 35.759C31.144 36.1473 31.1103 36.1735 30.3963 36.1735C29.1352 36.1735 26.7076 35.4505 24.994 34.5651C23.7842 33.9397 22.9571 33.3099 21.6951 32.0523L21.4906 31.8486V27.3641H23.8759L19.5285 23.0768L15.1813 27.3641H17.5665V32.1265Z" fill="white"/>
</svg>
