<svg width="214" height="224" viewBox="0 0 214 224" fill="none" xmlns="http://www.w3.org/2000/svg">
<path fill-rule="evenodd" clip-rule="evenodd" d="M157 0C154.791 0.00024 153 1.79096 153 4V20V36H41C25.5834 36 13 48.5834 13 64V124C13.0002 126.209 14.791 128 17 128C19.7788 127.992 22.2518 127.999 25 127.992V138C25 143.471 29.5292 148 35 148C40.4708 148 45 143.471 45 138V132C48.2383 132 51.1421 130.406 52.9766 127.977C71.6556 127.961 90.5958 127.928 109 127.945V214C109 219.471 113.529 224 119 224C124.471 224 129 219.471 129 214V127.961C131.245 127.963 133.614 127.965 135.844 127.969C137.398 131.496 140.936 134 145 134H175C180.471 134 185 129.471 185 124V106C185 102.773 183.415 99.8824 181 98.0469V64C181 51.3619 172.541 40.646 161 37.1875V24H193C195.209 23.9998 197 22.209 197 20V4C197 1.79096 195.209 0.00024 193 0H157ZM161 8H189V16H161V8ZM41 44C52.0931 44 61 52.9069 61 64V120H54.7969C53.8552 115.468 49.787 112 45 112H35C30.213 112 26.1448 115.468 25.2031 120H21V64C21 52.9069 29.9069 44 41 44ZM60.5547 44H93V84C93 89.4708 97.5292 94 103 94C108.471 94 113 89.4708 113 84V60C113 58.8228 113.823 58 115 58C116.177 58 117 58.8228 117 60V68C117 73.4708 121.529 78 127 78C132.471 78 137 73.4708 137 68V44H153V64H149C146.791 64 145 65.7909 145 68C145 70.2091 146.791 72 149 72H157H165C167.209 72 169 70.2091 169 68C169 65.7909 167.209 64 165 64H161V45.6562C168.078 48.7278 173 55.7575 173 64V96.2031C168.468 97.1448 165 101.213 165 106V114H145C140.949 114 137.421 116.489 135.859 120C113.588 120.001 91.3247 120 69 120V64C69 56.1792 65.7585 49.0896 60.5547 44ZM101 44H129V68C129 69.1772 128.177 70 127 70C125.823 70 125 69.1772 125 68V60C125 54.5292 120.471 50 115 50C109.529 50 105 54.5292 105 60V84C105 85.1772 104.177 86 103 86C101.823 86 101 85.1772 101 84V44ZM175 104C176.177 104 177 104.823 177 106V124C177 125.177 176.177 126 175 126H145C143.823 126 143 125.177 143 124C143 122.823 143.823 122 145 122H169C171.209 122 173 120.209 173 118V106C173 104.823 173.823 104 175 104ZM35 120H45C46.1772 120 47 120.823 47 122C47 123.177 46.1772 124 45 124H41C38.791 124 37.0002 125.791 37 128V138C37 139.177 36.1772 140 35 140C33.8228 140 33 139.177 33 138V122C33 120.823 33.8228 120 35 120ZM117 127.953C118.297 127.954 119.698 127.952 121 127.953V214C121 215.177 120.177 216 119 216C117.823 216 117 215.177 117 214V127.953Z" fill="black"/>
<path fill-rule="evenodd" clip-rule="evenodd" d="M4.36914 4.58453C3.30827 4.58453 2.29079 5.00577 1.54065 5.75592C0.790504 6.50607 0.369141 7.52367 0.369141 8.58453C0.369141 9.6454 0.790504 10.6628 1.54065 11.4129C2.29079 12.163 3.30827 12.5845 4.36914 12.5845C5.43001 12.5845 6.44736 12.163 7.19751 11.4129C7.94766 10.6628 8.36914 9.6454 8.36914 8.58453C8.36914 7.52367 7.94766 6.50607 7.19751 5.75592C6.44736 5.00577 5.43001 4.58453 4.36914 4.58453Z" fill="#059033"/>
<path fill-rule="evenodd" clip-rule="evenodd" d="M209.789 42.2637C208.728 42.2637 207.711 42.6852 206.961 43.4354C206.21 44.1855 205.789 45.2029 205.789 46.2637C205.789 47.3246 206.21 48.342 206.961 49.0921C207.711 49.8423 208.728 50.2637 209.789 50.2637C210.85 50.2637 211.867 49.8423 212.617 49.0921C213.368 48.342 213.789 47.3246 213.789 46.2637C213.789 45.2029 213.368 44.1855 212.617 43.4354C211.867 42.6852 210.85 42.2637 209.789 42.2637Z" fill="#059033"/>
<path fill-rule="evenodd" clip-rule="evenodd" d="M191.381 151.72C190.32 151.72 189.303 152.142 188.553 152.892C187.803 153.642 187.381 154.659 187.381 155.72C187.381 156.781 187.803 157.798 188.553 158.549C189.303 159.299 190.32 159.72 191.381 159.72C192.442 159.72 193.46 159.299 194.21 158.549C194.96 157.798 195.381 156.781 195.381 155.72C195.381 154.659 194.96 153.642 194.21 152.892C193.46 152.142 192.442 151.72 191.381 151.72Z" fill="black"/>
<path fill-rule="evenodd" clip-rule="evenodd" d="M82.8647 153.53C81.8039 153.53 80.7865 153.952 80.0364 154.702C79.2862 155.452 78.8647 156.47 78.8647 157.53C78.8647 158.591 79.2862 159.609 80.0364 160.359C80.7865 161.109 81.8039 161.53 82.8647 161.53C83.9256 161.53 84.9431 161.109 85.6932 160.359C86.4434 159.609 86.8647 158.591 86.8647 157.53C86.8647 156.47 86.4434 155.452 85.6932 154.702C84.9431 153.952 83.9256 153.53 82.8647 153.53Z" fill="black"/>
<path fill-rule="evenodd" clip-rule="evenodd" d="M171.508 202.844C170.483 202.569 169.391 202.713 168.473 203.243C167.554 203.774 166.884 204.647 166.609 205.672L164.539 213.406C164.265 214.431 164.408 215.523 164.939 216.441C165.469 217.36 166.343 218.03 167.367 218.305C168.392 218.579 169.483 218.435 170.402 217.905C171.321 217.375 171.991 216.501 172.266 215.477L174.336 207.742C174.61 206.718 174.466 205.626 173.936 204.707C173.406 203.789 172.532 203.118 171.508 202.844Z" fill="#059033"/>
<path fill-rule="evenodd" clip-rule="evenodd" d="M177.719 179.664C176.694 179.39 175.603 179.533 174.684 180.064C173.765 180.594 173.095 181.468 172.82 182.492L170.75 190.219C170.476 191.243 170.619 192.335 171.15 193.254C171.68 194.172 172.554 194.843 173.578 195.117C174.603 195.392 175.694 195.248 176.613 194.717C177.531 194.187 178.202 193.314 178.477 192.289L180.547 184.562C180.821 183.538 180.677 182.446 180.147 181.528C179.617 180.609 178.743 179.939 177.719 179.664Z" fill="#059033"/>
<path fill-rule="evenodd" clip-rule="evenodd" d="M158.125 190.977C157.1 190.702 156.009 190.846 155.09 191.376C154.171 191.907 153.501 192.78 153.227 193.805C152.952 194.829 153.096 195.921 153.626 196.84C154.157 197.758 155.03 198.428 156.055 198.703L163.781 200.773C164.806 201.048 165.897 200.904 166.816 200.374C167.735 199.843 168.405 198.97 168.68 197.945C168.954 196.921 168.81 195.829 168.28 194.91C167.75 193.992 166.876 193.321 165.852 193.047L158.125 190.977Z" fill="#059033"/>
<path fill-rule="evenodd" clip-rule="evenodd" d="M181.305 197.187C180.28 196.913 179.188 197.057 178.27 197.587C177.351 198.117 176.681 198.991 176.406 200.016C176.132 201.04 176.276 202.132 176.806 203.051C177.336 203.969 178.21 204.639 179.234 204.914L186.961 206.984C187.469 207.121 187.999 207.157 188.52 207.089C189.042 207.021 189.545 206.851 190.001 206.588C190.456 206.325 190.856 205.975 191.176 205.558C191.496 205.141 191.731 204.664 191.867 204.156C192.003 203.648 192.037 203.119 191.968 202.598C191.899 202.076 191.728 201.574 191.465 201.119C191.201 200.664 190.851 200.266 190.433 199.946C190.016 199.627 189.539 199.393 189.031 199.258L181.305 197.187Z" fill="#059033"/>
<path fill-rule="evenodd" clip-rule="evenodd" d="M33 96C31.9391 96 30.9218 96.4215 30.1716 97.1716C29.4215 97.9218 29 98.9391 29 100C29 101.061 29.4215 102.078 30.1716 102.828C30.9218 103.579 31.9391 104 33 104H49C50.0609 104 51.0782 103.579 51.8284 102.828C52.5785 102.078 53 101.061 53 100C53 98.9391 52.5785 97.9218 51.8284 97.1716C51.0782 96.4215 50.0609 96 49 96H33Z" fill="black"/>
<path fill-rule="evenodd" clip-rule="evenodd" d="M41.0001 52C37.9214 52 35.1901 53.5535 33.2891 55.6562C31.3881 57.759 30.1341 60.4361 29.4844 63.4219C29.2591 64.4578 29.4544 65.541 30.0272 66.4331C30.5999 67.3252 31.5034 67.9534 32.5391 68.1797C33.0526 68.2924 33.5834 68.3028 34.1009 68.2102C34.6184 68.1176 35.1125 67.9238 35.5551 67.6401C35.9977 67.3564 36.3801 66.9885 36.6804 66.5569C36.9806 66.1253 37.1927 65.6387 37.3047 65.125C37.7003 63.3076 38.4733 61.8489 39.2266 61.0156C39.98 60.1823 40.5276 60 41.0001 60C41.4623 60 41.9918 60.1784 42.7266 60.9688C43.4615 61.7591 44.2324 63.1423 44.6485 64.8906C44.8934 65.9222 45.5378 66.8144 46.4402 67.3711C47.3426 67.9278 48.4292 68.1034 49.461 67.8594C49.9726 67.7382 50.4553 67.5172 50.8815 67.2092C51.3077 66.9013 51.669 66.5124 51.9448 66.0647C52.2205 65.617 52.4052 65.1193 52.4885 64.6001C52.5717 64.0809 52.5517 63.5505 52.4297 63.0391C51.741 60.145 50.4746 57.547 48.586 55.5156C46.6974 53.4842 44.0123 52 41.0001 52Z" fill="black"/>
<path fill-rule="evenodd" clip-rule="evenodd" d="M27.7966 197.156C27.2887 197.02 26.7589 196.984 26.2374 197.053C25.7159 197.121 25.213 197.292 24.7575 197.555L17.8356 201.555C16.917 202.084 16.2462 202.957 15.9708 203.981C15.6954 205.005 15.8378 206.097 16.3669 207.016C16.6298 207.471 16.9799 207.87 17.3972 208.19C17.8144 208.509 18.2905 208.744 18.7984 208.88C19.3063 209.015 19.836 209.05 20.3571 208.98C20.8783 208.911 21.3807 208.74 21.8356 208.476L28.7575 204.476C29.6762 203.947 30.347 203.074 30.6224 202.05C30.8978 201.026 30.7553 199.935 30.2263 199.016C29.6948 198.098 28.8209 197.43 27.7966 197.156Z" fill="black"/>
<path fill-rule="evenodd" clip-rule="evenodd" d="M48.5778 185.156C47.5545 184.882 46.4643 185.026 45.5465 185.555L38.6169 189.555C37.6995 190.086 37.0304 190.959 36.7565 191.983C36.4826 193.007 36.6262 194.098 37.1559 195.016C37.6869 195.933 38.5602 196.602 39.5841 196.876C40.6081 197.15 41.6988 197.006 42.6169 196.477L49.5465 192.477C50.4639 191.946 51.133 191.072 51.4069 190.048C51.6808 189.024 51.5372 187.934 51.0075 187.016C50.476 186.098 49.6021 185.43 48.5778 185.156Z" fill="black"/>
<path fill-rule="evenodd" clip-rule="evenodd" d="M26.7262 179.297C26.2183 179.16 25.6885 179.125 25.167 179.193C24.6455 179.262 24.1427 179.432 23.6872 179.695C22.7698 180.226 22.1007 181.1 21.8268 182.123C21.5529 183.147 21.6965 184.238 22.2262 185.156L26.2262 192.086C26.7559 193.005 27.6286 193.675 28.6526 193.951C29.6766 194.226 30.7682 194.084 31.6872 193.555C32.1431 193.292 32.5428 192.943 32.8634 192.526C33.1841 192.109 33.4194 191.633 33.5558 191.125C33.6922 190.617 33.7271 190.087 33.6585 189.566C33.5899 189.044 33.4191 188.541 33.1559 188.086L29.1559 181.156C28.6244 180.239 27.7505 179.57 26.7262 179.297Z" fill="black"/>
<path fill-rule="evenodd" clip-rule="evenodd" d="M38.7262 200.078C38.2183 199.941 37.6885 199.906 37.167 199.975C36.6455 200.043 36.1426 200.214 35.6871 200.476C35.2319 200.739 34.8329 201.09 34.5131 201.507C34.1932 201.924 33.9587 202.4 33.823 202.908C33.6873 203.416 33.6531 203.946 33.7223 204.467C33.7915 204.988 33.9627 205.49 34.2262 205.945L38.2262 212.875C38.7572 213.792 39.6305 214.461 40.6544 214.735C41.6783 215.009 42.7691 214.866 43.6871 214.336C44.6058 213.806 45.2766 212.933 45.552 211.909C45.8274 210.885 45.6849 209.794 45.1559 208.875L41.1559 201.945C40.8935 201.49 40.5439 201.09 40.127 200.77C39.71 200.449 39.234 200.214 38.7262 200.078Z" fill="black"/>
<path fill-rule="evenodd" clip-rule="evenodd" d="M95.1929 11.9719C94.132 11.9719 93.1146 12.3933 92.3645 13.1435C91.6144 13.8936 91.1929 14.911 91.1929 15.9719C91.1929 17.0327 91.6144 18.0503 92.3645 18.8005C93.1146 19.5506 94.132 19.9719 95.1929 19.9719C96.2537 19.9719 97.2712 19.5506 98.0214 18.8005C98.7715 18.0503 99.1929 17.0327 99.1929 15.9719C99.1929 14.911 98.7715 13.8936 98.0214 13.1435C97.2712 12.3933 96.2537 11.9719 95.1929 11.9719Z" fill="black"/>
<path fill-rule="evenodd" clip-rule="evenodd" d="M55 147C49.5292 147 45 151.529 45 157V163C45 168.471 49.5292 173 55 173C60.4708 173 65 168.471 65 163V157C65 151.529 60.4708 147 55 147ZM55 155C56.1772 155 57 155.823 57 157V163C57 164.177 56.1772 165 55 165C53.8228 165 53 164.177 53 163V157C53 155.823 53.8228 155 55 155Z" fill="#059033"/>
</svg>
