<svg width="208" height="208" viewBox="0 0 208 208" fill="none" xmlns="http://www.w3.org/2000/svg">
<path d="M204.383 77.1022C197.17 50.1833 179.995 27.7351 156.022 13.8942C140.315 4.82508 122.424 0.0317383 104.286 0.0317383C67.0293 0.0317383 32.3933 19.9364 13.8947 51.9773C0.0545627 75.9497 -3.59559 103.977 3.61778 130.897C10.8307 157.817 28.005 180.265 51.9782 194.106C55.3139 196.031 58.7479 197.762 62.2624 199.297H60.6496C58.2551 199.297 56.3145 201.239 56.3145 203.632C56.3145 206.027 58.2556 207.968 60.6496 207.968H103.665C103.682 207.968 103.698 207.968 103.716 207.968C103.733 207.968 103.749 207.968 103.767 207.968H147.353C149.747 207.968 151.688 206.026 151.688 203.632C151.688 201.238 149.746 199.297 147.353 199.297H145.421C165.597 190.541 182.843 175.532 194.106 156.023C207.946 132.05 211.596 104.022 204.383 77.1022ZM186.597 151.687C169.65 181.04 137.915 199.279 103.766 199.297H103.664C87.0623 199.288 70.6901 194.897 56.3133 186.596C10.769 160.301 -4.89112 101.856 21.4038 56.312C38.3587 26.9454 70.1173 8.70193 104.286 8.70193C120.905 8.70193 137.296 13.0939 151.687 21.4029C197.23 47.6979 212.891 106.143 186.597 151.687Z" fill="black"/>
<path d="M83.804 179.375C56.9611 172.181 35.8174 151.039 28.6243 124.197C28.0048 121.884 25.6262 120.51 23.315 121.131C21.0022 121.751 19.6295 124.128 20.2495 126.441C28.2416 156.265 51.7338 179.758 81.5599 187.75C81.9353 187.851 82.3131 187.899 82.6844 187.899C84.5982 187.899 86.3504 186.622 86.8692 184.684C87.4891 182.372 86.1164 179.995 83.804 179.375Z" fill="black"/>
<path d="M126.44 20.2488C124.128 19.6296 121.751 21.0024 121.131 23.3147C120.511 25.6271 121.884 28.0037 124.196 28.6236C151.04 35.8175 172.183 56.96 179.374 83.8017C179.893 85.7383 181.645 87.016 183.559 87.016C183.931 87.016 184.308 86.968 184.684 86.8669C186.997 86.2469 188.369 83.8704 187.749 81.558C179.759 51.7335 156.267 28.2409 126.44 20.2488Z" fill="black"/>
<path d="M101.408 181.991C100.326 181.954 99.2332 181.895 98.1623 181.815C95.7841 181.633 93.6935 183.426 93.5148 185.814C93.3356 188.201 95.1256 190.282 97.5135 190.461C98.7026 190.551 99.9149 190.616 101.116 190.656C101.166 190.658 101.215 190.659 101.265 190.659C103.591 190.659 105.516 188.813 105.595 186.47C105.676 184.077 103.801 182.071 101.408 181.991Z" fill="black"/>
<path d="M106.589 26.0082C107.669 26.0456 108.763 26.1049 109.841 26.1841C109.951 26.1927 110.059 26.1959 110.167 26.1959C112.415 26.1959 114.316 24.46 114.485 22.1814C114.663 19.7934 112.871 17.7146 110.483 17.5371C109.29 17.4489 108.08 17.3831 106.885 17.3425C104.495 17.2535 102.486 19.1353 102.404 21.5277C102.323 23.9213 104.197 25.9274 106.589 26.0082Z" fill="black"/>
<path d="M141.943 62.3262C138.171 62.3262 134.633 63.7875 131.979 66.4419L86.7539 111.666L76.022 100.933C73.3684 98.2797 69.83 96.8184 66.0587 96.8184C62.2871 96.8184 58.7483 98.2805 56.095 100.934C53.4406 103.589 51.9785 107.127 51.9785 110.898C51.9785 114.669 53.4402 118.208 56.0946 120.862L76.8203 141.588L76.9995 141.763C77.0303 141.794 77.0624 141.824 77.0945 141.853L77.2769 142.022C77.3033 142.047 77.331 142.072 77.3586 142.095L77.5455 142.26C77.571 142.281 77.5962 142.304 77.6222 142.325L77.812 142.484C77.8371 142.504 77.8619 142.525 77.8875 142.546L78.0797 142.699C78.1134 142.727 78.1479 142.753 78.182 142.779L78.3779 142.927C78.4091 142.951 78.4412 142.973 78.4733 142.996L78.672 143.137C78.6992 143.156 78.7264 143.176 78.754 143.194L78.9551 143.33C78.9836 143.349 79.0124 143.368 79.0409 143.387L79.2456 143.518C79.2765 143.538 79.3078 143.557 79.3386 143.577L79.5454 143.702C79.58 143.723 79.6153 143.743 79.6502 143.764L79.859 143.882C79.8867 143.898 79.9139 143.913 79.9419 143.928L80.1528 144.042C80.1832 144.058 80.2133 144.074 80.2438 144.09L80.457 144.199C80.4916 144.216 80.5265 144.233 80.5615 144.25L80.7772 144.353C80.8085 144.368 80.8405 144.382 80.8726 144.397L81.0896 144.494C81.1225 144.509 81.1558 144.523 81.1891 144.538L81.4093 144.629C81.4377 144.641 81.467 144.653 81.4954 144.665L81.7156 144.751C81.7514 144.764 81.7867 144.778 81.8225 144.791L82.0467 144.873C82.0829 144.885 82.1186 144.898 82.1548 144.91L82.3782 144.985C82.4095 144.995 82.4416 145.005 82.4737 145.015L82.6995 145.085C82.7349 145.096 82.7706 145.106 82.8068 145.116L83.0339 145.18C83.0579 145.187 83.0818 145.193 83.1062 145.199L83.3333 145.258C83.3788 145.27 83.4247 145.282 83.4702 145.292L83.7005 145.344C83.7257 145.35 83.7505 145.355 83.7757 145.36L84.006 145.408C84.0483 145.416 84.0897 145.425 84.1316 145.432L84.2587 145.455C84.3286 145.469 84.3989 145.481 84.4704 145.492L84.7024 145.528C84.7288 145.531 84.7548 145.536 84.7812 145.539L85.014 145.569C85.0525 145.575 85.0911 145.579 85.1297 145.583L85.3625 145.608C85.3885 145.611 85.4149 145.614 85.4417 145.615L85.6753 145.635C85.72 145.64 85.7643 145.643 85.809 145.646L86.0434 145.658C86.0743 145.66 86.1055 145.662 86.136 145.663L86.3696 145.671C86.3985 145.672 86.4277 145.673 86.4561 145.673L86.6905 145.676C86.7113 145.677 86.7328 145.677 86.7535 145.677C86.7742 145.677 86.7958 145.677 86.8161 145.676L87.0505 145.673C87.0789 145.673 87.1082 145.672 87.1366 145.671L87.3706 145.663C87.4072 145.662 87.4429 145.66 87.4795 145.657L87.7139 145.644C87.748 145.642 87.783 145.639 87.8175 145.636L88.0503 145.617C88.0807 145.614 88.1116 145.611 88.1417 145.608L88.3753 145.583C88.4139 145.579 88.4525 145.575 88.4906 145.57L88.7242 145.539C88.7519 145.536 88.7799 145.531 88.8075 145.527L89.0387 145.492C89.1098 145.481 89.1805 145.468 89.2503 145.454L89.3771 145.432C89.4173 145.425 89.4583 145.417 89.4981 145.408L89.7289 145.361C89.7606 145.354 89.7919 145.348 89.8235 145.34L90.0531 145.288C90.0864 145.28 90.1193 145.272 90.1522 145.263L90.3805 145.204C90.4118 145.197 90.4435 145.189 90.4752 145.179L90.7019 145.115C90.7388 145.105 90.7746 145.095 90.8111 145.084L91.0366 145.014C91.0687 145.005 91.1004 144.994 91.1329 144.983L91.3571 144.909C91.3921 144.897 91.4278 144.884 91.4628 144.871L91.687 144.79C91.7163 144.779 91.7455 144.768 91.7752 144.757L91.9958 144.671C92.036 144.656 92.077 144.639 92.1164 144.622L92.3358 144.53C92.3561 144.522 92.3764 144.512 92.3963 144.504L92.6145 144.407C92.6571 144.389 92.6982 144.37 92.7396 144.35L92.9541 144.247C92.9842 144.233 93.0138 144.218 93.0435 144.203L93.2576 144.094C93.2901 144.078 93.3226 144.061 93.3551 144.043L93.5659 143.929C93.5935 143.914 93.6216 143.899 93.6488 143.883L93.8576 143.765C93.8942 143.744 93.9299 143.722 93.9657 143.7L94.1725 143.575C94.2045 143.556 94.237 143.536 94.2695 143.515L94.4735 143.384C94.4975 143.368 94.521 143.353 94.545 143.337L94.7469 143.201C94.777 143.181 94.8066 143.16 94.8363 143.139L95.0349 142.998C95.0682 142.974 95.1007 142.951 95.1336 142.926L95.329 142.778C95.3624 142.753 95.3953 142.728 95.4278 142.701L95.6199 142.548C95.6406 142.53 95.6614 142.514 95.6825 142.497L95.8722 142.34C95.9266 142.294 95.9807 142.247 96.0331 142.199L96.1517 142.094C96.174 142.075 96.1968 142.054 96.2183 142.034L96.402 141.865C96.4349 141.835 96.4678 141.805 96.5003 141.772L96.679 141.598C96.7127 141.566 96.7456 141.532 96.7781 141.499L151.907 86.3709C154.56 83.7173 156.021 80.1788 156.021 76.4076C156.021 72.6356 154.559 69.0971 151.905 66.4443C149.253 63.7875 145.715 62.3262 141.943 62.3262ZM145.777 80.2385L90.5625 135.452L90.255 135.734L89.5176 136.258L88.6791 136.657L87.6339 136.934L86.7539 137.004L86.6251 137.002L85.7066 136.904L84.8222 136.654L83.8813 136.191L83.118 135.615L62.2258 114.732C61.2089 113.715 60.6487 112.354 60.6487 110.898C60.6487 109.443 61.2089 108.082 62.2262 107.065C63.2422 106.048 64.6031 105.488 66.0591 105.488C67.5143 105.488 68.8757 106.048 69.8921 107.064L83.6888 120.862C84.5017 121.675 85.6046 122.133 86.7543 122.133C87.904 122.133 89.0066 121.675 89.8199 120.862L138.11 72.5718C139.127 71.5558 140.488 70.996 141.944 70.996C143.399 70.996 144.76 71.5558 145.778 72.5726C146.794 73.5886 147.353 74.9492 147.353 76.4048C147.352 77.8612 146.793 79.2225 145.777 80.2385Z" fill="#059033"/>
</svg>
